<svg width="256" height="256" viewBox="0 0 256 256" fill="none" xmlns="http://www.w3.org/2000/svg">
  <!-- QuickBooks Green Background -->
  <rect width="256" height="256" rx="24" fill="#2CA01C"/>

  <!-- White QB Logo -->
  <g transform="translate(40, 60)">
    <!-- Letter Q -->
    <path d="M60 40C37.909 40 20 57.909 20 80v36c0 22.091 17.909 40 40 40h20c5.523 0 10-4.477 10-10V80c0-22.091-17.909-40-40-40H60zm10 86H60c-11.046 0-20-8.954-20-20V80c0-11.046 8.954-20 20-20h0c11.046 0 20 8.954 20 20v36c0 5.523-4.477 10-10 10z" fill="white"/>

    <!-- Letter B -->
    <path d="M96 50c0-5.523 4.477-10 10-10h30c16.569 0 30 13.431 30 30 0 8.776-3.771 16.677-9.781 22.172C162.229 97.667 166 105.569 166 114.5c0 16.569-13.431 30-30 30H106c-5.523 0-10-4.477-10-10V50zm20 10v26h20c5.523 0 10-4.477 10-10s-4.477-10-10-10h-20zm0 46v28h20c5.523 0 10-4.477 10-10s-4.477-10-10-10h-20z" fill="white"/>
  </g>
</svg>